{"title":"The Hangover 2 (2011) DVDRip XviD- Luvka","uid":7225770,"size":1574620593,"categoryP":"video","categoryS":"movies","magnet":"?xt=urn:btih:e82675ed232d7474da1ed089288820ef7a572ef4&amp;dn=The+Hangover+2+%282011%29+DVDRip+XviD-+Luvka&amp;tr=udp%3A%2F%2Ftracker.openbittorrent.com%3A80&amp;tr=udp%3A%2F%2Fopen.demonii.com%3A1337&amp;tr=udp%3A%2F%2Ftracker.coppersurfer.tk%3A6969&amp;tr=udp%3A%2F%2Fexodus.desync.com%3A6969","seeders":0,"leechers":1,"uploader":"Luvka","files":4,"time":1335667998,"description":"##       ##     ## ##     ## ##    ##    ###    \n##       ##     ## ##     ## ##   ##    ## ##   \n##       ##     ## ##     ## ##  ##    ##   ##  \n##       ##     ## ##     ## #####    ##     ## \n##       ##     ##  ##   ##  ##  ##   ######### \n##       ##     ##   ## ##   ##   ##  ##     ## \n########  #######     ###    ##    ## ##     ## \n.:Luvka Bringing The Shit You Love Since 2012:.\n\nThe Hangover 2 (2011) DVDRip\nFormat                           : AVI\nFormat/Info                      : Audio Video Interleave\nFormat profile                   : OpenDML\nFile size                        : 1.47 GiB\nDuration                         : 1h 37mn\nOverall bit rate                 : 2 151 Kbps\nWriting application              : VirtualDubMod 1.5.10.2 (build 2542/release)\nWriting library                  : VirtualDubMod build 2542/release\nOriginal source form             : MAX TORRENTZ\nCopyright                        : SIGISMUNT\n\nVideo\nID                               : 0\nFormat                           : MPEG-4 Visual\nFormat profile                   : AdvancedSimple@L5\nFormat settings, BVOP            : Yes\nFormat settings, QPel            : No\nFormat settings, GMC             : No warppoints\nFormat settings, Matrix          : Custom\nCodec ID                         : XVID\nCodec ID/Hint                    : XviD\nDuration                         : 1h 37mn\nBit rate                         : 1 950 Kbps\nWidth                            : 672 pixels\nHeight                           : 288 pixels\nDisplay aspect ratio             : 2.35:1\nFrame rate                       : 29.970 fps\nResolution                       : 24 bits\nColorimetry                      : 4:2:0\nScan type                        : Progressive\nBits/(Pixel*Frame)               : 0.336\nStream size                      : 1.33 GiB (91%)\nWriting library                  : XviD 1.2.1 (UTC 2008-12-04)\n\nAudio\nID                               : 1\nFormat                           : MPEG Audio\nFormat version                   : Version 1\nFormat profile                   : Layer 3\nCodec ID                         : 55\nCodec ID/Hint                    : MP3\nDuration                         : 1h 37mn\nBit rate mode                    : Constant\nBit rate                         : 192 Kbps\nChannel(s)                       : 2 channels\nSampling rate                    : 48.0 KHz\nResolution                       : 16 bits\nStream size                      : 134 MiB (9%)\nAlignment                        : Aligned on interleaves\nInterleave, duration             : 24 ms (0.72 video frame)\nInterleave, preload duration     : 192 ms\n\n\nREMEMBER: GOD DEMANDS LOVE,SEEDS,PEERS AND A FAIR TORRENT RATIO\n\nCopyright Â© Luvka 2012\n","torrent":{"xt":"urn:btih:e82675ed232d7474da1ed089288820ef7a572ef4","amp;dn":"The+Hangover+2+%282011%29+DVDRip+XviD-+Luvka","amp;tr":["udp%3A%2F%2Ftracker.openbittorrent.com%3A80","udp%3A%2F%2Fopen.demonii.com%3A1337","udp%3A%2F%2Ftracker.coppersurfer.tk%3A6969","udp%3A%2F%2Fexodus.desync.com%3A6969"],"infoHash":"e82675ed232d7474da1ed089288820ef7a572ef4","infoHashBuffer":{"type":"Buffer","data":[232,38,117,237,35,45,116,116,218,30,208,137,40,136,32,239,122,87,46,244]},"announce":[],"urlList":[]}}